<svg width="73" height="78" viewBox="0 0 73 78" fill="none" xmlns="http://www.w3.org/2000/svg">
<rect x="34" width="5" height="78" fill="#109C3D"/>
<circle cx="36.5" cy="38.5" r="31.5" fill="#109C3D"/>
<circle cx="36.5" cy="38.5" r="35.5" stroke="#109C3D" stroke-width="2" stroke-dasharray="4 4"/>
<path d="M49.7692 36.9419V24.9512C49.7692 23.3226 48.4665 22 46.8648 22H28.1352C26.5335 22 25.2308 23.3237 25.2308 24.9512V36.9419C23.9358 37.4111 23 38.6577 23 40.1333C23 42.0079 24.5013 43.5333 26.3462 43.5333H27.4615V45.7955C27.4615 48.2979 29.4648 50.3333 31.9275 50.3333H34.1538V54.8667C34.1538 55.4934 34.6535 56 35.2692 56H39.7308C40.3465 56 40.8462 55.4934 40.8462 54.8667V50.3333H43.0725C45.5352 50.3333 47.5385 48.2979 47.5385 45.7955V43.5333H48.6538C50.4987 43.5333 52 42.0079 52 40.1333C52 38.6577 51.0642 37.4111 49.7692 36.9419ZM27.4615 24.9512C27.4615 24.5738 27.7638 24.2667 28.1352 24.2667H29.6923V33.3333C29.6923 33.9601 30.192 34.4667 30.8077 34.4667C31.4234 34.4667 31.9231 33.9601 31.9231 33.3333V24.2667H34.1538V33.3333C34.1538 33.9601 34.6535 34.4667 35.2692 34.4667C35.8849 34.4667 36.3846 33.9601 36.3846 33.3333V24.2667H38.6154V33.3333C38.6154 33.9601 39.1151 34.4667 39.7308 34.4667C40.3465 34.4667 40.8462 33.9601 40.8462 33.3333V24.2667H43.0769V33.3333C43.0769 33.9601 43.5766 34.4667 44.1923 34.4667C44.808 34.4667 45.3077 33.9601 45.3077 33.3333V24.2667H46.8648C47.2362 24.2667 47.5385 24.5738 47.5385 24.9512V36.7333H27.4615V24.9512ZM38.6154 53.7333H36.3846V50.3333H38.6154V53.7333ZM45.3077 45.7955C45.3077 47.0467 44.305 48.0667 43.0725 48.0667H31.9287C30.6962 48.0667 29.6934 47.0478 29.6934 45.7955V43.5333H45.3088L45.3077 45.7955ZM48.6538 41.2667H26.3462C25.7316 41.2667 25.2308 40.7589 25.2308 40.1333C25.2308 39.5077 25.7316 39 26.3462 39H48.6538C49.2684 39 49.7692 39.5077 49.7692 40.1333C49.7692 40.7589 49.2684 41.2667 48.6538 41.2667Z" fill="white"/>
</svg>
