<svg width="24" height="24" viewBox="0 0 24 24" fill="none" xmlns="http://www.w3.org/2000/svg">
<path d="M18.9501 14.8671C18.4588 14.3555 17.8661 14.082 17.238 14.082C16.615 14.082 16.0173 14.3504 15.5057 14.862L13.905 16.4576C13.7733 16.3867 13.6416 16.3209 13.515 16.255C13.3326 16.1638 13.1604 16.0777 13.0135 15.9866C11.5142 15.0343 10.1516 13.7933 8.8447 12.1875C8.21153 11.3872 7.78604 10.7135 7.47706 10.0297C7.89242 9.64979 8.27738 9.25469 8.65222 8.87479C8.79405 8.73296 8.93588 8.58606 9.07771 8.44423C10.1414 7.38051 10.1414 6.00273 9.07771 4.939L7.69487 3.55616C7.53784 3.39913 7.37575 3.23704 7.22379 3.07495C6.91987 2.7609 6.60075 2.43671 6.2715 2.13279C5.78016 1.64652 5.19258 1.38818 4.5746 1.38818C3.95663 1.38818 3.35892 1.64652 2.85238 2.13279C2.84732 2.13786 2.84732 2.13786 2.84225 2.14292L1.12003 3.88034C0.47166 4.52871 0.101889 5.3189 0.0208432 6.23574C-0.100725 7.71482 0.334896 9.0926 0.66921 9.99423C1.4898 12.2078 2.71562 14.2593 4.54421 16.4576C6.76284 19.1068 9.43229 21.1988 12.4816 22.6728C13.6467 23.225 15.2017 23.8784 16.9392 23.9898C17.0455 23.9949 17.157 24 17.2583 24C18.4284 24 19.4111 23.5795 20.181 22.7438C20.1861 22.7336 20.1962 22.7286 20.2012 22.7184C20.4646 22.3993 20.7686 22.1106 21.0877 21.8016C21.3055 21.5939 21.5284 21.3761 21.7462 21.1482C22.2477 20.6264 22.5111 20.0186 22.5111 19.3955C22.5111 18.7674 22.2426 18.1647 21.731 17.6581L18.9501 14.8671ZM20.7635 20.2009C20.7584 20.2009 20.7584 20.206 20.7635 20.2009C20.566 20.4137 20.3633 20.6062 20.1455 20.8189C19.8163 21.133 19.482 21.4622 19.1679 21.832C18.6563 22.379 18.0535 22.6374 17.2633 22.6374C17.1874 22.6374 17.1063 22.6374 17.0303 22.6323C15.5259 22.5361 14.1279 21.9485 13.0793 21.447C10.2124 20.0591 7.69487 18.0887 5.60287 15.5915C3.87558 13.5096 2.72068 11.5848 1.95581 9.51809C1.48473 8.25681 1.31251 7.27413 1.38849 6.34717C1.43914 5.75453 1.66709 5.26319 2.08751 4.84276L3.8148 3.11547C4.063 2.88247 4.3264 2.75583 4.58473 2.75583C4.90385 2.75583 5.16219 2.94832 5.32428 3.11041C5.32934 3.11547 5.33441 3.12054 5.33947 3.1256C5.64846 3.41433 5.94225 3.71319 6.25124 4.0323C6.40827 4.19439 6.57036 4.35649 6.73245 4.52364L8.11529 5.90649C8.65222 6.44342 8.65222 6.93982 8.11529 7.47675C7.9684 7.62364 7.82657 7.77054 7.67967 7.91237C7.25418 8.34799 6.84895 8.75322 6.40827 9.14832C6.39813 9.15845 6.388 9.16351 6.38294 9.17365C5.94732 9.60927 6.02836 10.0348 6.11954 10.3235C6.12461 10.3387 6.12967 10.3539 6.13474 10.3691C6.49438 11.2403 7.00091 12.0609 7.77085 13.0385L7.77591 13.0436C9.17395 14.7658 10.648 16.1081 12.274 17.1364C12.4816 17.2681 12.6944 17.3745 12.897 17.4758C13.0793 17.5669 13.2516 17.6531 13.3985 17.7442C13.4187 17.7544 13.439 17.7696 13.4593 17.7797C13.6315 17.8658 13.7936 17.9063 13.9607 17.9063C14.3811 17.9063 14.6445 17.6429 14.7307 17.5568L16.463 15.8245C16.6352 15.6522 16.9088 15.4446 17.2279 15.4446C17.5419 15.4446 17.8003 15.6421 17.9573 15.8143C17.9624 15.8194 17.9624 15.8194 17.9674 15.8245L20.7584 18.6155C21.2802 19.1321 21.2802 19.664 20.7635 20.2009Z" fill="white"/>
<path d="M12.9535 5.70896C14.2806 5.93183 15.4862 6.55994 16.4486 7.52236C17.411 8.48478 18.0341 9.69033 18.262 11.0175C18.3177 11.3518 18.6064 11.5848 18.9357 11.5848C18.9762 11.5848 19.0117 11.5797 19.0522 11.5746C19.427 11.5139 19.6752 11.1593 19.6145 10.7845C19.3409 9.17873 18.5811 7.71484 17.4211 6.55487C16.2612 5.39491 14.7973 4.6351 13.1916 4.36157C12.8167 4.30079 12.4672 4.54899 12.4014 4.91876C12.3355 5.28853 12.5787 5.64817 12.9535 5.70896Z" fill="white"/>
<path d="M23.9528 10.5869C23.502 7.94278 22.2559 5.53674 20.3412 3.62203C18.4265 1.70732 16.0204 0.461242 13.3763 0.0104253C13.0065 -0.0554244 12.657 0.197844 12.5912 0.567615C12.5304 0.942452 12.7786 1.29196 13.1534 1.35781C15.5139 1.75798 17.6667 2.87742 19.3788 4.58445C21.0909 6.29654 22.2052 8.44932 22.6054 10.8098C22.6611 11.1441 22.9498 11.3771 23.2791 11.3771C23.3196 11.3771 23.3551 11.372 23.3956 11.367C23.7654 11.3112 24.0186 10.9567 23.9528 10.5869Z" fill="white"/>
</svg>
